<?xml version="1.0" encoding="us-ascii" standalone="no"?><svg xmlns="http://www.w3.org/2000/svg" xmlns:xlink="http://www.w3.org/1999/xlink" contentStyleType="text/css" height="940px" preserveAspectRatio="none" style="width:463px;height:940px;background:#FFFFFF;" version="1.1" viewBox="0 0 463 940" width="463px" zoomAndPan="magnify"><defs/><g><ellipse cx="222.5" cy="20" fill="#222222" rx="10" ry="10" style="stroke:#222222;stroke-width:1.0;"/><rect fill="#F1F1F1" height="33.9688" rx="12.5" ry="12.5" style="stroke:#181818;stroke-width:0.5;" width="128" x="158.5" y="50"/><text fill="#000000" font-family="sans-serif" font-size="12" lengthAdjust="spacing" textLength="108" x="168.5" y="71.1387">App wird geladen</text><rect fill="#F1F1F1" height="33.9688" rx="12.5" ry="12.5" style="stroke:#181818;stroke-width:0.5;" width="282" x="81.5" y="103.9688"/><text fill="#000000" font-family="sans-serif" font-size="12" lengthAdjust="spacing" textLength="262" x="91.5" y="125.1074">Benutzer gibt die Anzahl der Personen ein</text><rect fill="#F1F1F1" height="33.9688" rx="12.5" ry="12.5" style="stroke:#181818;stroke-width:0.5;" width="301" x="72" y="157.9375"/><text fill="#000000" font-family="sans-serif" font-size="12" lengthAdjust="spacing" textLength="281" x="82" y="179.0762">Benutzer gibt die Seitenanzahl f&#252;r Buch 1 ein</text><rect fill="#F1F1F1" height="33.9688" rx="12.5" ry="12.5" style="stroke:#181818;stroke-width:0.5;" width="301" x="72" y="211.9063"/><text fill="#000000" font-family="sans-serif" font-size="12" lengthAdjust="spacing" textLength="281" x="82" y="233.0449">Benutzer gibt die Seitenanzahl f&#252;r Buch 2 ein</text><rect fill="#F1F1F1" height="33.9688" rx="12.5" ry="12.5" style="stroke:#181818;stroke-width:0.5;" width="372" x="36.5" y="309.875"/><text fill="#000000" font-family="sans-serif" font-size="12" lengthAdjust="spacing" textLength="352" x="46.5" y="331.0137">Benutzer dr&#252;ckt die Schaltfl&#228;che "Leseplan generieren"?</text><rect fill="#F1F1F1" height="33.9688" rx="12.5" ry="12.5" style="stroke:#181818;stroke-width:0.5;" width="289" x="78" y="407.8438"/><text fill="#000000" font-family="sans-serif" font-size="12" lengthAdjust="spacing" textLength="269" x="88" y="428.9824">Benutzer gibt die Startseite f&#252;r Buch 1 ein?</text><polygon fill="#F1F1F1" points="222.5,363.8438,234.5,375.8438,222.5,387.8438,210.5,375.8438,222.5,363.8438" style="stroke:#181818;stroke-width:0.5;"/><polygon fill="#F1F1F1" points="73,461.8125,372,461.8125,384,473.8125,372,485.8125,73,485.8125,61,473.8125,73,461.8125" style="stroke:#181818;stroke-width:0.5;"/><text fill="#000000" font-family="sans-serif" font-size="11" lengthAdjust="spacing" textLength="299" x="73" y="477.6206">Benutzer hat keine Startseite f&#252;r Buch 1 eingegeben</text><rect fill="#F1F1F1" height="33.9688" rx="12.5" ry="12.5" style="stroke:#181818;stroke-width:0.5;" width="289" x="78" y="549.8125"/><text fill="#000000" font-family="sans-serif" font-size="12" lengthAdjust="spacing" textLength="269" x="88" y="570.9512">Benutzer gibt die Startseite f&#252;r Buch 2 ein?</text><polygon fill="#F1F1F1" points="222.5,505.8125,234.5,517.8125,222.5,529.8125,210.5,517.8125,222.5,505.8125" style="stroke:#181818;stroke-width:0.5;"/><polygon fill="#F1F1F1" points="73,603.7813,372,603.7813,384,615.7813,372,627.7813,73,627.7813,61,615.7813,73,603.7813" style="stroke:#181818;stroke-width:0.5;"/><text fill="#000000" font-family="sans-serif" font-size="11" lengthAdjust="spacing" textLength="299" x="73" y="619.5894">Benutzer hat keine Startseite f&#252;r Buch 2 eingegeben</text><polygon fill="#F1F1F1" points="222.5,265.875,234.5,277.875,222.5,289.875,210.5,277.875,222.5,265.875" style="stroke:#181818;stroke-width:0.5;"/><polygon fill="#F1F1F1" points="32,647.7813,413,647.7813,425,659.7813,413,671.7813,32,671.7813,20,659.7813,32,647.7813" style="stroke:#181818;stroke-width:0.5;"/><text fill="#000000" font-family="sans-serif" font-size="11" lengthAdjust="spacing" textLength="381" x="32" y="663.5894">Benutzer hat nicht die Schaltfl&#228;che "Leseplan generieren" gedr&#252;ckt</text><rect fill="#F1F1F1" height="33.9688" rx="12.5" ry="12.5" style="stroke:#181818;stroke-width:0.5;" width="149" x="148" y="691.7813"/><text fill="#000000" font-family="sans-serif" font-size="12" lengthAdjust="spacing" textLength="129" x="158" y="712.9199">Leseplan generieren</text><rect fill="#F1F1F1" height="33.9688" rx="12.5" ry="12.5" style="stroke:#181818;stroke-width:0.5;" width="182" x="131.5" y="745.75"/><text fill="#000000" font-family="sans-serif" font-size="12" lengthAdjust="spacing" textLength="162" x="141.5" y="766.8887">Erfolgsnachricht anzeigen</text><rect fill="#F1F1F1" height="33.9688" rx="12.5" ry="12.5" style="stroke:#181818;stroke-width:0.5;" width="230" x="107.5" y="799.7188"/><text fill="#000000" font-family="sans-serif" font-size="12" lengthAdjust="spacing" textLength="210" x="117.5" y="820.8574">Leseplan in Excel-Datei speichern</text><rect fill="#F1F1F1" height="33.9688" rx="12.5" ry="12.5" style="stroke:#181818;stroke-width:0.5;" width="208" x="118.5" y="853.6875"/><text fill="#000000" font-family="sans-serif" font-size="12" lengthAdjust="spacing" textLength="188" x="128.5" y="874.8262">Leseplan in Excel-Datei &#246;ffnen</text><ellipse cx="222.5" cy="918.6563" fill="none" rx="11" ry="11" style="stroke:#222222;stroke-width:1.0;"/><ellipse cx="222.5" cy="918.6563" fill="#222222" rx="6" ry="6" style="stroke:#111111;stroke-width:1.0;"/><line style="stroke:#181818;stroke-width:1.0;" x1="222.5" x2="222.5" y1="30" y2="50"/><polygon fill="#181818" points="218.5,40,222.5,50,226.5,40,222.5,44" style="stroke:#181818;stroke-width:1.0;"/><line style="stroke:#181818;stroke-width:1.0;" x1="222.5" x2="222.5" y1="83.9688" y2="103.9688"/><polygon fill="#181818" points="218.5,93.9688,222.5,103.9688,226.5,93.9688,222.5,97.9688" style="stroke:#181818;stroke-width:1.0;"/><line style="stroke:#181818;stroke-width:1.0;" x1="222.5" x2="222.5" y1="137.9375" y2="157.9375"/><polygon fill="#181818" points="218.5,147.9375,222.5,157.9375,226.5,147.9375,222.5,151.9375" style="stroke:#181818;stroke-width:1.0;"/><line style="stroke:#181818;stroke-width:1.0;" x1="222.5" x2="222.5" y1="191.9063" y2="211.9063"/><polygon fill="#181818" points="218.5,201.9063,222.5,211.9063,226.5,201.9063,222.5,205.9063" style="stroke:#181818;stroke-width:1.0;"/><line style="stroke:#181818;stroke-width:1.0;" x1="222.5" x2="222.5" y1="387.8438" y2="407.8438"/><polygon fill="#181818" points="218.5,397.8438,222.5,407.8438,226.5,397.8438,222.5,401.8438" style="stroke:#181818;stroke-width:1.0;"/><line style="stroke:#181818;stroke-width:1.0;" x1="384" x2="396" y1="473.8125" y2="473.8125"/><polygon fill="#181818" points="392,434.8281,396,424.8281,400,434.8281,396,430.8281" style="stroke:#181818;stroke-width:1.0;"/><line style="stroke:#181818;stroke-width:1.0;" x1="396" x2="396" y1="375.8438" y2="473.8125"/><line style="stroke:#181818;stroke-width:1.0;" x1="396" x2="234.5" y1="375.8438" y2="375.8438"/><polygon fill="#181818" points="244.5,371.8438,234.5,375.8438,244.5,379.8438,240.5,375.8438" style="stroke:#181818;stroke-width:1.0;"/><line style="stroke:#181818;stroke-width:1.0;" x1="222.5" x2="222.5" y1="441.8125" y2="461.8125"/><polygon fill="#181818" points="218.5,451.8125,222.5,461.8125,226.5,451.8125,222.5,455.8125" style="stroke:#181818;stroke-width:1.0;"/><line style="stroke:#181818;stroke-width:1.0;" x1="222.5" x2="222.5" y1="343.8438" y2="363.8438"/><polygon fill="#181818" points="218.5,353.8438,222.5,363.8438,226.5,353.8438,222.5,357.8438" style="stroke:#181818;stroke-width:1.0;"/><line style="stroke:#181818;stroke-width:1.0;" x1="222.5" x2="222.5" y1="529.8125" y2="549.8125"/><polygon fill="#181818" points="218.5,539.8125,222.5,549.8125,226.5,539.8125,222.5,543.8125" style="stroke:#181818;stroke-width:1.0;"/><line style="stroke:#181818;stroke-width:1.0;" x1="384" x2="396" y1="615.7813" y2="615.7813"/><polygon fill="#181818" points="392,576.7969,396,566.7969,400,576.7969,396,572.7969" style="stroke:#181818;stroke-width:1.0;"/><line style="stroke:#181818;stroke-width:1.0;" x1="396" x2="396" y1="517.8125" y2="615.7813"/><line style="stroke:#181818;stroke-width:1.0;" x1="396" x2="234.5" y1="517.8125" y2="517.8125"/><polygon fill="#181818" points="244.5,513.8125,234.5,517.8125,244.5,521.8125,240.5,517.8125" style="stroke:#181818;stroke-width:1.0;"/><line style="stroke:#181818;stroke-width:1.0;" x1="222.5" x2="222.5" y1="583.7813" y2="603.7813"/><polygon fill="#181818" points="218.5,593.7813,222.5,603.7813,226.5,593.7813,222.5,597.7813" style="stroke:#181818;stroke-width:1.0;"/><line style="stroke:#181818;stroke-width:1.0;" x1="222.5" x2="222.5" y1="485.8125" y2="505.8125"/><polygon fill="#181818" points="218.5,495.8125,222.5,505.8125,226.5,495.8125,222.5,499.8125" style="stroke:#181818;stroke-width:1.0;"/><line style="stroke:#181818;stroke-width:1.0;" x1="222.5" x2="222.5" y1="289.875" y2="309.875"/><polygon fill="#181818" points="218.5,299.875,222.5,309.875,226.5,299.875,222.5,303.875" style="stroke:#181818;stroke-width:1.0;"/><line style="stroke:#181818;stroke-width:1.0;" x1="425" x2="437" y1="659.7813" y2="659.7813"/><polygon fill="#181818" points="433,478.8281,437,468.8281,441,478.8281,437,474.8281" style="stroke:#181818;stroke-width:1.0;"/><line style="stroke:#181818;stroke-width:1.0;" x1="437" x2="437" y1="277.875" y2="659.7813"/><line style="stroke:#181818;stroke-width:1.0;" x1="437" x2="234.5" y1="277.875" y2="277.875"/><polygon fill="#181818" points="244.5,273.875,234.5,277.875,244.5,281.875,240.5,277.875" style="stroke:#181818;stroke-width:1.0;"/><line style="stroke:#181818;stroke-width:1.0;" x1="222.5" x2="222.5" y1="627.7813" y2="647.7813"/><polygon fill="#181818" points="218.5,637.7813,222.5,647.7813,226.5,637.7813,222.5,641.7813" style="stroke:#181818;stroke-width:1.0;"/><line style="stroke:#181818;stroke-width:1.0;" x1="222.5" x2="222.5" y1="245.875" y2="265.875"/><polygon fill="#181818" points="218.5,255.875,222.5,265.875,226.5,255.875,222.5,259.875" style="stroke:#181818;stroke-width:1.0;"/><line style="stroke:#181818;stroke-width:1.0;" x1="222.5" x2="222.5" y1="671.7813" y2="691.7813"/><polygon fill="#181818" points="218.5,681.7813,222.5,691.7813,226.5,681.7813,222.5,685.7813" style="stroke:#181818;stroke-width:1.0;"/><line style="stroke:#181818;stroke-width:1.0;" x1="222.5" x2="222.5" y1="725.75" y2="745.75"/><polygon fill="#181818" points="218.5,735.75,222.5,745.75,226.5,735.75,222.5,739.75" style="stroke:#181818;stroke-width:1.0;"/><line style="stroke:#181818;stroke-width:1.0;" x1="222.5" x2="222.5" y1="779.7188" y2="799.7188"/><polygon fill="#181818" points="218.5,789.7188,222.5,799.7188,226.5,789.7188,222.5,793.7188" style="stroke:#181818;stroke-width:1.0;"/><line style="stroke:#181818;stroke-width:1.0;" x1="222.5" x2="222.5" y1="833.6875" y2="853.6875"/><polygon fill="#181818" points="218.5,843.6875,222.5,853.6875,226.5,843.6875,222.5,847.6875" style="stroke:#181818;stroke-width:1.0;"/><line style="stroke:#181818;stroke-width:1.0;" x1="222.5" x2="222.5" y1="887.6563" y2="907.6563"/><polygon fill="#181818" points="218.5,897.6563,222.5,907.6563,226.5,897.6563,222.5,901.6563" style="stroke:#181818;stroke-width:1.0;"/><!--SRC=[fP4zJWCn48LxdsAK2WeAjbmAb8Xq54YSmF6-jQrOizROKL3Emnceqkt5y2RH9g1enKzdsU_xz3oJifQiL3sFaRPU6h88kW4_g7e1tkGTXAnVPMeyQCuxxG8rvUu5aZe64_prx2jy1kiZqVPxeSN6EBh_BL0T0IM8q5aHdT56-hrPdsZZTCXjwD-D0ysUaH23vl8TXdW8UFPOB4IZvz9qBZ6C8mrDldU-f6dhV03TZBmhT-iIcX9OMAp0jtyiKVstHFMrn8I4lN4_dcevd_PGfFMLH5dsKjeksCJQE3cuovRXxU5j93pJyiqWt3tf34yfeaGXKvd-esrviAYKk_W9]--></g></svg>